<svg width="200" height="200" viewBox="0 0 200 200" fill="none" xmlns="http://www.w3.org/2000/svg">
<path d="M92.4046 19.2308H106.595V69.2308H92.4046V19.2308Z" fill="#D9D9D9"/>
<path d="M118.206 18.5897C118.206 28.8566 109.831 37.1795 99.5 37.1795C89.1689 37.1795 80.7939 28.8566 80.7939 18.5897C80.7939 8.32291 89.1689 0 99.5 0C109.831 0 118.206 8.32291 118.206 18.5897Z" fill="#D9D9D9"/>
<path fill-rule="evenodd" clip-rule="evenodd" d="M177.55 53.8462C181.112 53.8462 184 56.7161 184 60.2564V193.59C184 197.13 181.112 200 177.55 200H21.4504C17.8879 200 15 197.13 15 193.59V60.2564C15 56.7161 17.8879 53.8462 21.4504 53.8462H177.55ZM52.4122 151.282C43.1499 151.282 35.6412 158.744 35.6412 167.949C35.6412 177.153 43.1499 184.615 52.4122 184.615H147.878C157.14 184.615 164.649 177.153 164.649 167.949C164.649 158.744 157.14 151.282 147.878 151.282H52.4122ZM50.4771 88.4615C42.2835 88.4615 35.6412 95.0625 35.6412 103.205C35.6412 111.348 42.2835 117.949 50.4771 117.949C58.6707 117.949 65.313 111.348 65.313 103.205C65.313 95.0625 58.6707 88.4615 50.4771 88.4615ZM149.813 88.4615C141.619 88.4615 134.977 95.0625 134.977 103.205C134.977 111.348 141.619 117.949 149.813 117.949C158.007 117.949 164.649 111.348 164.649 103.205C164.649 95.0625 158.007 88.4615 149.813 88.4615Z" fill="#D9D9D9"/>
</svg>
